<svg width="387" height="66" viewBox="0 0 387 66" fill="none" xmlns="http://www.w3.org/2000/svg">
<path d="M0 3C0 1.34315 1.34315 0 3 0H361.39C362.106 0 362.799 0.256177 363.343 0.72223L385.952 20.102C386.617 20.672 387 21.504 387 22.3798V63C387 64.6569 385.657 66 384 66H3C1.34315 66 0 64.6569 0 63V3Z" fill="url(#paint0_linear_2_10)"/>
<path d="M71.8034 35.4489H74.1557L75.3382 36.9702L76.5016 38.3253L78.6941 41.0739H76.1117L74.6032 39.2202L73.8297 38.1207L71.8034 35.4489ZM78.8922 33.4545C78.8922 34.8821 78.6216 36.0966 78.0804 37.098C77.5435 38.0994 76.8105 38.8643 75.8816 39.3928C74.9569 39.9169 73.9171 40.179 72.7623 40.179C71.5989 40.179 70.5549 39.9148 69.6301 39.3864C68.7054 38.858 67.9746 38.093 67.4377 37.0916C66.9007 36.0902 66.6323 34.8778 66.6323 33.4545C66.6323 32.027 66.9007 30.8125 67.4377 29.8111C67.9746 28.8097 68.7054 28.0469 69.6301 27.5227C70.5549 26.9943 71.5989 26.7301 72.7623 26.7301C73.9171 26.7301 74.9569 26.9943 75.8816 27.5227C76.8105 28.0469 77.5435 28.8097 78.0804 29.8111C78.6216 30.8125 78.8922 32.027 78.8922 33.4545ZM76.0861 33.4545C76.0861 32.5298 75.9476 31.75 75.6706 31.1151C75.3979 30.4801 75.0123 29.9986 74.5137 29.6705C74.0151 29.3423 73.4313 29.1783 72.7623 29.1783C72.0932 29.1783 71.5094 29.3423 71.0108 29.6705C70.5123 29.9986 70.1245 30.4801 69.8475 31.1151C69.5748 31.75 69.4384 32.5298 69.4384 33.4545C69.4384 34.3793 69.5748 35.1591 69.8475 35.794C70.1245 36.429 70.5123 36.9105 71.0108 37.2386C71.5094 37.5668 72.0932 37.7308 72.7623 37.7308C73.4313 37.7308 74.0151 37.5668 74.5137 37.2386C75.0123 36.9105 75.3979 36.429 75.6706 35.794C75.9476 35.1591 76.0861 34.3793 76.0861 33.4545ZM89.0284 26.9091H91.7962V35.4105C91.7962 36.3651 91.5682 37.2003 91.1122 37.9162C90.6605 38.6321 90.0277 39.1903 89.2138 39.5909C88.3999 39.9872 87.4517 40.1854 86.3693 40.1854C85.2827 40.1854 84.3324 39.9872 83.5185 39.5909C82.7045 39.1903 82.0717 38.6321 81.62 37.9162C81.1683 37.2003 80.9425 36.3651 80.9425 35.4105V26.9091H83.7102V35.174C83.7102 35.6726 83.8189 36.1158 84.0362 36.5036C84.2578 36.8913 84.5689 37.196 84.9695 37.4176C85.37 37.6392 85.8366 37.75 86.3693 37.75C86.9063 37.75 87.3729 37.6392 87.7692 37.4176C88.1697 37.196 88.4787 36.8913 88.696 36.5036C88.9176 36.1158 89.0284 35.6726 89.0284 35.174V26.9091ZM94.0733 40V26.9091H102.894V29.1911H96.8411V32.3104H102.441V34.5923H96.8411V37.718H102.92V40H94.0733ZM105.095 40V26.9091H110.26C111.248 26.9091 112.092 27.0859 112.791 27.4396C113.494 27.7891 114.029 28.2855 114.395 28.929C114.766 29.5682 114.951 30.3203 114.951 31.1854C114.951 32.0547 114.764 32.8026 114.389 33.429C114.014 34.0511 113.471 34.5284 112.759 34.8608C112.051 35.1932 111.195 35.3594 110.189 35.3594H106.731V33.1349H109.742C110.27 33.1349 110.709 33.0625 111.059 32.9176C111.408 32.7727 111.668 32.5554 111.838 32.2656C112.013 31.9759 112.1 31.6158 112.1 31.1854C112.1 30.7507 112.013 30.3842 111.838 30.0859C111.668 29.7876 111.406 29.5618 111.052 29.4084C110.703 29.2507 110.262 29.1719 109.729 29.1719H107.863V40H105.095ZM112.164 34.0426L115.418 40H112.363L109.179 34.0426H112.164ZM128.937 33.4545C128.937 34.8821 128.667 36.0966 128.125 37.098C127.588 38.0994 126.855 38.8643 125.926 39.3928C125.002 39.9169 123.962 40.179 122.807 40.179C121.644 40.179 120.6 39.9148 119.675 39.3864C118.75 38.858 118.02 38.093 117.483 37.0916C116.946 36.0902 116.677 34.8778 116.677 33.4545C116.677 32.027 116.946 30.8125 117.483 29.8111C118.02 28.8097 118.75 28.0469 119.675 27.5227C120.6 26.9943 121.644 26.7301 122.807 26.7301C123.962 26.7301 125.002 26.9943 125.926 27.5227C126.855 28.0469 127.588 28.8097 128.125 29.8111C128.667 30.8125 128.937 32.027 128.937 33.4545ZM126.131 33.4545C126.131 32.5298 125.993 31.75 125.716 31.1151C125.443 30.4801 125.057 29.9986 124.559 29.6705C124.06 29.3423 123.476 29.1783 122.807 29.1783C122.138 29.1783 121.554 29.3423 121.056 29.6705C120.557 29.9986 120.169 30.4801 119.892 31.1151C119.62 31.75 119.483 32.5298 119.483 33.4545C119.483 34.3793 119.62 35.1591 119.892 35.794C120.169 36.429 120.557 36.9105 121.056 37.2386C121.554 37.5668 122.138 37.7308 122.807 37.7308C123.476 37.7308 124.06 37.5668 124.559 37.2386C125.057 36.9105 125.443 36.429 125.716 35.794C125.993 35.1591 126.131 34.3793 126.131 33.4545ZM143.239 26.9091H146.007V35.4105C146.007 36.3651 145.779 37.2003 145.323 37.9162C144.871 38.6321 144.239 39.1903 143.425 39.5909C142.611 39.9872 141.663 40.1854 140.58 40.1854C139.494 40.1854 138.543 39.9872 137.729 39.5909C136.915 39.1903 136.283 38.6321 135.831 37.9162C135.379 37.2003 135.153 36.3651 135.153 35.4105V26.9091H137.921V35.174C137.921 35.6726 138.03 36.1158 138.247 36.5036C138.469 36.8913 138.78 37.196 139.18 37.4176C139.581 37.6392 140.048 37.75 140.58 37.75C141.117 37.75 141.584 37.6392 141.98 37.4176C142.381 37.196 142.69 36.8913 142.907 36.5036C143.129 36.1158 143.239 35.6726 143.239 35.174V26.9091ZM148.284 26.9091H151.698L155.303 35.7045H155.456L159.061 26.9091H162.475V40H159.79V31.4794H159.681L156.294 39.9361H154.465L151.078 31.4474H150.969V40H148.284V26.9091ZM167.011 40H164.045L168.565 26.9091H172.131L176.644 40H173.678L170.399 29.9006H170.297L167.011 40ZM166.826 34.8544H173.832V37.0149H166.826V34.8544ZM182.386 40V26.9091H185.154V37.718H190.766V40H182.386ZM195.189 40H192.223L196.742 26.9091H200.309L204.822 40H201.856L198.577 29.9006H198.475L195.189 40ZM195.004 34.8544H202.009V37.0149H195.004V34.8544ZM217.347 26.9091V40H214.956L209.261 31.7607H209.165V40H206.398V26.9091H208.827L214.477 35.142H214.592V26.9091H217.347ZM224.275 40H219.634V26.9091H224.313C225.63 26.9091 226.763 27.1712 227.713 27.6953C228.664 28.2152 229.395 28.9631 229.906 29.9389C230.422 30.9148 230.679 32.0824 230.679 33.4418C230.679 34.8054 230.422 35.9773 229.906 36.9574C229.395 37.9375 228.659 38.6896 227.701 39.2138C226.746 39.7379 225.604 40 224.275 40ZM222.402 37.6286H224.159C224.978 37.6286 225.666 37.4837 226.224 37.1939C226.787 36.8999 227.208 36.446 227.49 35.8324C227.775 35.2145 227.918 34.4176 227.918 33.4418C227.918 32.4744 227.775 31.6839 227.49 31.0703C227.208 30.4567 226.789 30.005 226.23 29.7152C225.672 29.4254 224.984 29.2805 224.166 29.2805H222.402V37.6286ZM235.497 26.9091V40H232.73V26.9091H235.497ZM248.724 26.9091V40H246.333L240.638 31.7607H240.542V40H237.775V26.9091H240.203L245.854 35.142H245.969V26.9091H248.724ZM259.691 31.1406C259.602 30.8295 259.476 30.5547 259.314 30.3161C259.152 30.0732 258.954 29.8686 258.72 29.7024C258.49 29.532 258.225 29.402 257.927 29.3125C257.633 29.223 257.307 29.1783 256.949 29.1783C256.28 29.1783 255.692 29.3445 255.185 29.6768C254.682 30.0092 254.29 30.4929 254.009 31.1278C253.727 31.7585 253.587 32.5298 253.587 33.4418C253.587 34.3537 253.725 35.1293 254.002 35.7685C254.279 36.4077 254.671 36.8956 255.178 37.2322C255.686 37.5646 256.284 37.7308 256.975 37.7308C257.601 37.7308 258.136 37.62 258.579 37.3984C259.026 37.1726 259.367 36.8551 259.602 36.446C259.84 36.0369 259.96 35.5533 259.96 34.995L260.522 35.0781H257.147V32.9943H262.625V34.6435C262.625 35.794 262.382 36.7827 261.896 37.6094C261.411 38.4318 260.742 39.0668 259.889 39.5142C259.037 39.9574 258.061 40.179 256.962 40.179C255.735 40.179 254.656 39.9084 253.727 39.3672C252.798 38.8217 252.074 38.0483 251.554 37.0469C251.039 36.0412 250.781 34.848 250.781 33.4673C250.781 32.4062 250.934 31.4602 251.241 30.6293C251.552 29.794 251.987 29.0866 252.545 28.5071C253.103 27.9276 253.753 27.4865 254.494 27.1839C255.236 26.8814 256.039 26.7301 256.904 26.7301C257.646 26.7301 258.336 26.8388 258.975 27.0561C259.615 27.2692 260.181 27.5717 260.676 27.9638C261.174 28.3558 261.581 28.8224 261.896 29.3636C262.212 29.9006 262.414 30.4929 262.504 31.1406H259.691ZM268.87 40V26.9091H274.035C275.028 26.9091 275.874 27.0987 276.573 27.478C277.271 27.853 277.804 28.375 278.171 29.044C278.541 29.7088 278.727 30.4759 278.727 31.3452C278.727 32.2145 278.539 32.9815 278.164 33.6463C277.789 34.3111 277.246 34.8288 276.534 35.1996C275.827 35.5703 274.97 35.7557 273.965 35.7557H270.673V33.5376H273.517C274.05 33.5376 274.489 33.446 274.834 33.2628C275.183 33.0753 275.443 32.8175 275.614 32.4893C275.789 32.157 275.876 31.7756 275.876 31.3452C275.876 30.9105 275.789 30.5312 275.614 30.2074C275.443 29.8793 275.183 29.6257 274.834 29.4467C274.485 29.2635 274.041 29.1719 273.504 29.1719H271.638V40H268.87ZM281.269 40H278.303L282.822 26.9091H286.389L290.902 40H287.936L284.657 29.9006H284.555L281.269 40ZM281.084 34.8544H288.089V37.0149H281.084V34.8544ZM300.543 31.1406C300.453 30.8295 300.328 30.5547 300.166 30.3161C300.004 30.0732 299.806 29.8686 299.571 29.7024C299.341 29.532 299.077 29.402 298.779 29.3125C298.485 29.223 298.159 29.1783 297.801 29.1783C297.132 29.1783 296.544 29.3445 296.036 29.6768C295.534 30.0092 295.142 30.4929 294.86 31.1278C294.579 31.7585 294.438 32.5298 294.438 33.4418C294.438 34.3537 294.577 35.1293 294.854 35.7685C295.131 36.4077 295.523 36.8956 296.03 37.2322C296.537 37.5646 297.136 37.7308 297.826 37.7308C298.453 37.7308 298.987 37.62 299.431 37.3984C299.878 37.1726 300.219 36.8551 300.453 36.446C300.692 36.0369 300.811 35.5533 300.811 34.995L301.374 35.0781H297.999V32.9943H303.477V34.6435C303.477 35.794 303.234 36.7827 302.748 37.6094C302.262 38.4318 301.593 39.0668 300.741 39.5142C299.889 39.9574 298.913 40.179 297.813 40.179C296.586 40.179 295.508 39.9084 294.579 39.3672C293.65 38.8217 292.926 38.0483 292.406 37.0469C291.89 36.0412 291.632 34.848 291.632 33.4673C291.632 32.4062 291.786 31.4602 292.093 30.6293C292.404 29.794 292.838 29.0866 293.396 28.5071C293.955 27.9276 294.605 27.4865 295.346 27.1839C296.088 26.8814 296.891 26.7301 297.756 26.7301C298.497 26.7301 299.188 26.8388 299.827 27.0561C300.466 27.2692 301.033 27.5717 301.527 27.9638C302.026 28.3558 302.433 28.8224 302.748 29.3636C303.063 29.9006 303.266 30.4929 303.355 31.1406H300.543ZM305.556 40V26.9091H314.377V29.1911H308.324V32.3104H313.923V34.5923H308.324V37.718H314.402V40H305.556ZM319.78 26.9091L319.53 36.0753H317.191L316.935 26.9091H319.78ZM318.361 40.1662C317.939 40.1662 317.577 40.017 317.274 39.7188C316.971 39.4162 316.822 39.054 316.827 38.6321C316.822 38.2145 316.971 37.8565 317.274 37.5582C317.577 37.2599 317.939 37.1108 318.361 37.1108C318.765 37.1108 319.121 37.2599 319.428 37.5582C319.735 37.8565 319.89 38.2145 319.895 38.6321C319.89 38.9134 319.816 39.1712 319.671 39.4055C319.53 39.6357 319.345 39.821 319.115 39.9616C318.885 40.098 318.633 40.1662 318.361 40.1662Z" fill="black"/>
<defs>
<linearGradient id="paint0_linear_2_10" x1="0" y1="0" x2="387" y2="66" gradientUnits="userSpaceOnUse">
<stop stop-color="#00FF66"/>
<stop offset="1" stop-color="#59FF92"/>
</linearGradient>
</defs>
</svg>
