<svg width="54" height="54" viewBox="0 0 54 54" fill="none" xmlns="http://www.w3.org/2000/svg">
<path d="M22.5 38.1375H13.9725C6.39 38.1375 4.5 36.2475 4.5 28.665V15.165C4.5 7.58251 6.39 5.6925 13.9725 5.6925H37.665C45.2475 5.6925 47.1375 7.58251 47.1375 15.165M22.5 48.3075V38.1375M4.5 29.1375H22.5M15.165 48.3075H22.5" stroke="white" stroke-width="1.54" stroke-linecap="round" stroke-linejoin="round"/>
<path d="M49.5 28.8V41.6475C49.5 46.98 48.1725 48.3075 42.84 48.3075H34.8525C29.52 48.3075 28.1925 46.98 28.1925 41.6475V28.8C28.1925 23.4675 29.52 22.14 34.8525 22.14H42.84C48.1725 22.14 49.5 23.4675 49.5 28.8Z" stroke="white" stroke-width="1.54" stroke-linecap="round" stroke-linejoin="round"/>
<path d="M38.799 41.0625H38.809" stroke="white" stroke-width="2" stroke-linecap="round" stroke-linejoin="round"/>
</svg>
