<svg width="53" height="53" viewBox="0 0 53 53" fill="none" xmlns="http://www.w3.org/2000/svg">
<path d="M15.2375 45.4916C18.55 47.4791 22.525 48.5833 26.5 48.5833C38.6458 48.5833 48.5833 38.6458 48.5833 26.5C48.5833 14.3541 38.6458 4.41663 26.5 4.41663C14.3542 4.41663 4.41666 14.3541 4.41666 26.5C4.41666 30.475 5.52082 34.2291 7.28749 37.5416L5.38832 44.8424C5.29034 45.2193 5.29377 45.6154 5.39825 45.9905C5.50274 46.3657 5.70457 46.7065 5.98328 46.9785C6.26198 47.2505 6.60765 47.4439 6.98524 47.5392C7.36282 47.6345 7.75889 47.6282 8.13328 47.5211L15.2375 45.4916Z" stroke="white" stroke-width="1.53623" stroke-miterlimit="10" stroke-linecap="round" stroke-linejoin="round"/>
<path d="M36.4375 32.7893C36.4375 33.1471 36.358 33.5159 36.188 33.8736C36.0145 34.2433 35.7867 34.5849 35.5122 34.8873C35.0242 35.4239 34.4875 35.8103 33.878 36.0599C33.2818 36.3094 32.6348 36.4375 31.9391 36.4375C30.9233 36.4375 29.839 36.199 28.6929 35.7132C27.4812 35.1879 26.3329 34.527 25.27 33.7433C24.1139 32.8988 23.0228 31.9687 22.006 30.9608C21.0001 29.9497 20.0721 28.8637 19.2302 27.7124C18.4564 26.6587 17.8017 25.5226 17.278 24.3248C16.801 23.1875 16.5625 22.1054 16.5625 21.0741C16.5625 20.3984 16.6818 19.7535 16.9203 19.1573C17.1588 18.55 17.5386 17.9935 18.0664 17.4966C18.7024 16.8695 19.398 16.5625 20.1356 16.5625C20.4138 16.5625 20.6921 16.6221 20.9416 16.7414C21.2 16.8606 21.4275 17.0395 21.6085 17.2979L23.9185 20.5485C24.0951 20.7959 24.2276 21.0255 24.316 21.2442C24.4043 21.4517 24.4551 21.6615 24.4551 21.8492C24.4522 22.0997 24.3796 22.3444 24.2453 22.5559C24.092 22.8144 23.9048 23.0514 23.6888 23.2604L22.9313 24.0465C22.8786 24.0981 22.8373 24.1601 22.8099 24.2285C22.7825 24.297 22.7697 24.3704 22.7723 24.444C22.7723 24.5213 22.7834 24.592 22.8033 24.6715C22.832 24.751 22.8629 24.8106 22.8828 24.8702C23.0594 25.1993 23.3686 25.6255 23.808 26.1423C24.2563 26.659 24.7333 27.1868 25.2501 27.7124C25.7889 28.2402 26.3057 28.726 26.8335 29.1743C27.3502 29.6093 27.7786 29.9075 28.1165 30.0863L28.2976 30.168C28.3769 30.1963 28.4607 30.2098 28.5449 30.2078C28.6211 30.2094 28.6968 30.1952 28.7671 30.1659C28.8375 30.1366 28.9009 30.093 28.9535 30.0378L29.7087 29.2913C29.9582 29.044 30.1967 28.8563 30.4264 28.7348C30.6376 28.6002 30.8826 28.5283 31.1331 28.5273C31.3421 28.5303 31.5485 28.5746 31.7404 28.6575C31.959 28.7459 32.1887 28.874 32.436 29.044L35.7308 31.3804C35.9696 31.5357 36.1594 31.7555 36.2785 32.0142C36.3817 32.2597 36.4358 32.523 36.4375 32.7893V32.7893Z" stroke="white" stroke-width="1.53623" stroke-miterlimit="10"/>
</svg>
